<svg xmlns="http://www.w3.org/2000/svg" viewBox="0 0 1600 1000" width="100%" height="100%" role="img" aria-labelledby="title description">
  <title id="title">TechnoLoad — Wireframes de baja fidelidad</title>
  <desc id="description">Grilla de catorce tarjetas de wireframes del MVP de TechnoLoad.</desc>
  <rect width="1600" height="1000" fill="#F4F5F7"/>

  <!-- Plantilla visual repetida: tarjeta, header gris, título y barras de interfaz -->
  <!-- Fila 1 -->
  <g><rect x="40" y="40" width="230" height="290" rx="12" fill="#FFFFFF" stroke="#D0D5DD"/><rect x="40" y="40" width="230" height="32" rx="12" fill="#DCDFE4"/><text x="54" y="61" font-family="sans-serif" font-size="11" font-weight="bold" fill="#78909C">A01</text><text x="241" y="61" font-family="sans-serif" font-size="11" font-weight="bold" fill="#78909C">A01</text><text x="56" y="101" font-family="sans-serif" font-size="14" font-weight="bold" fill="#171A20">Iniciar sesión</text><rect x="56" y="124" width="198" height="30" rx="4" fill="#F1F3F5"/><rect x="56" y="166" width="198" height="30" rx="4" fill="#F1F3F5"/><rect x="56" y="214" width="198" height="34" rx="4" fill="#B0BEC5"/><rect x="56" y="271" width="120" height="9" rx="4" fill="#E0E6ED"/></g>
  <g><rect x="290" y="40" width="230" height="290" rx="12" fill="#FFFFFF" stroke="#D0D5DD"/><rect x="290" y="40" width="230" height="32" rx="12" fill="#DCDFE4"/><text x="304" y="61" font-family="sans-serif" font-size="11" font-weight="bold" fill="#78909C">A02</text><text x="491" y="61" font-family="sans-serif" font-size="11" font-weight="bold" fill="#78909C">A02</text><text x="306" y="101" font-family="sans-serif" font-size="14" font-weight="bold" fill="#171A20">Crear cuenta</text><rect x="306" y="124" width="198" height="25" rx="4" fill="#F1F3F5"/><rect x="306" y="160" width="198" height="25" rx="4" fill="#F1F3F5"/><rect x="306" y="196" width="198" height="25" rx="4" fill="#F1F3F5"/><rect x="420" y="249" width="84" height="32" rx="4" fill="#B0BEC5"/></g>
  <g><rect x="540" y="40" width="230" height="290" rx="12" fill="#FFFFFF" stroke="#D0D5DD"/><rect x="540" y="40" width="230" height="32" rx="12" fill="#DCDFE4"/><text x="554" y="61" font-family="sans-serif" font-size="11" font-weight="bold" fill="#78909C">P01</text><text x="741" y="61" font-family="sans-serif" font-size="11" font-weight="bold" fill="#78909C">P01</text><text x="556" y="101" font-family="sans-serif" font-size="14" font-weight="bold" fill="#171A20">Dashboard operativo</text><rect x="556" y="124" width="58" height="52" rx="6" fill="#E0E6ED"/><rect x="626" y="124" width="58" height="52" rx="6" fill="#E0E6ED"/><rect x="696" y="124" width="58" height="52" rx="6" fill="#E0E6ED"/><rect x="556" y="194" width="198" height="60" rx="5" fill="#F1F3F5"/><rect x="556" y="272" width="145" height="10" rx="4" fill="#E0E6ED"/></g>
  <g><rect x="790" y="40" width="230" height="290" rx="12" fill="#FFFFFF" stroke="#D0D5DD"/><rect x="790" y="40" width="230" height="32" rx="12" fill="#DCDFE4"/><text x="804" y="61" font-family="sans-serif" font-size="11" font-weight="bold" fill="#78909C">P02</text><text x="991" y="61" font-family="sans-serif" font-size="11" font-weight="bold" fill="#78909C">P02</text><text x="806" y="101" font-family="sans-serif" font-size="14" font-weight="bold" fill="#171A20">Inventario de maquinaria</text><rect x="806" y="124" width="198" height="18" rx="4" fill="#E0E6ED"/><rect x="806" y="157" width="52" height="9" rx="4" fill="#B0BEC5"/><rect x="871" y="157" width="133" height="9" rx="4" fill="#E0E6ED"/><rect x="806" y="184" width="64" height="9" rx="4" fill="#B0BEC5"/><rect x="883" y="184" width="121" height="9" rx="4" fill="#E0E6ED"/><rect x="806" y="211" width="48" height="9" rx="4" fill="#B0BEC5"/><rect x="867" y="211" width="137" height="9" rx="4" fill="#E0E6ED"/></g>
  <g><rect x="1040" y="40" width="230" height="290" rx="12" fill="#FFFFFF" stroke="#D0D5DD"/><rect x="1040" y="40" width="230" height="32" rx="12" fill="#DCDFE4"/><text x="1054" y="61" font-family="sans-serif" font-size="11" font-weight="bold" fill="#78909C">P03</text><text x="1241" y="61" font-family="sans-serif" font-size="11" font-weight="bold" fill="#78909C">P03</text><text x="1056" y="101" font-family="sans-serif" font-size="14" font-weight="bold" fill="#171A20">Registrar maquinaria</text><rect x="1056" y="124" width="198" height="25" rx="4" fill="#F1F3F5"/><rect x="1056" y="160" width="198" height="25" rx="4" fill="#F1F3F5"/><rect x="1056" y="196" width="198" height="25" rx="4" fill="#F1F3F5"/><rect x="1170" y="249" width="84" height="32" rx="4" fill="#B0BEC5"/></g>

  <!-- Fila 2 -->
  <g><rect x="40" y="360" width="230" height="290" rx="12" fill="#FFFFFF" stroke="#D0D5DD"/><rect x="40" y="360" width="230" height="32" rx="12" fill="#DCDFE4"/><text x="54" y="381" font-family="sans-serif" font-size="11" font-weight="bold" fill="#78909C">P04</text><text x="241" y="381" font-family="sans-serif" font-size="11" font-weight="bold" fill="#78909C">P04</text><text x="56" y="421" font-family="sans-serif" font-size="14" font-weight="bold" fill="#171A20">Disponibilidad calendario</text><rect x="56" y="446" width="198" height="20" rx="4" fill="#E0E6ED"/><rect x="56" y="484" width="25" height="24" rx="3" fill="#E0E6ED"/><rect x="87" y="484" width="25" height="24" rx="3" fill="#E0E6ED"/><rect x="118" y="484" width="25" height="24" rx="3" fill="#E0E6ED"/><rect x="149" y="484" width="25" height="24" rx="3" fill="#E0E6ED"/><rect x="180" y="484" width="25" height="24" rx="3" fill="#E0E6ED"/><rect x="211" y="484" width="25" height="24" rx="3" fill="#B0BEC5"/></g>
  <g><rect x="290" y="360" width="230" height="290" rx="12" fill="#FFFFFF" stroke="#D0D5DD"/><rect x="290" y="360" width="230" height="32" rx="12" fill="#DCDFE4"/><text x="304" y="381" font-family="sans-serif" font-size="11" font-weight="bold" fill="#78909C">P05</text><text x="491" y="381" font-family="sans-serif" font-size="11" font-weight="bold" fill="#78909C">P05</text><text x="306" y="421" font-family="sans-serif" font-size="14" font-weight="bold" fill="#171A20">Solicitudes de reserva</text><rect x="306" y="446" width="198" height="18" rx="4" fill="#E0E6ED"/><rect x="306" y="480" width="52" height="9" rx="4" fill="#B0BEC5"/><rect x="371" y="480" width="133" height="9" rx="4" fill="#E0E6ED"/><rect x="306" y="507" width="64" height="9" rx="4" fill="#B0BEC5"/><rect x="383" y="507" width="121" height="9" rx="4" fill="#E0E6ED"/><rect x="450" y="562" width="54" height="26" rx="4" fill="#B0BEC5"/></g>
  <g><rect x="540" y="360" width="230" height="290" rx="12" fill="#FFFFFF" stroke="#D0D5DD"/><rect x="540" y="360" width="230" height="32" rx="12" fill="#DCDFE4"/><text x="554" y="381" font-family="sans-serif" font-size="11" font-weight="bold" fill="#78909C">P06</text><text x="741" y="381" font-family="sans-serif" font-size="11" font-weight="bold" fill="#78909C">P06</text><text x="556" y="421" font-family="sans-serif" font-size="14" font-weight="bold" fill="#171A20">Mantenimiento e historial</text><rect x="556" y="446" width="198" height="18" rx="4" fill="#E0E6ED"/><rect x="556" y="480" width="52" height="9" rx="4" fill="#B0BEC5"/><rect x="621" y="480" width="133" height="9" rx="4" fill="#E0E6ED"/><rect x="556" y="507" width="64" height="9" rx="4" fill="#B0BEC5"/><rect x="633" y="507" width="121" height="9" rx="4" fill="#E0E6ED"/><rect x="556" y="559" width="66" height="22" rx="11" fill="#B0BEC5"/></g>
  <g><rect x="790" y="360" width="230" height="290" rx="12" fill="#FFFFFF" stroke="#D0D5DD"/><rect x="790" y="360" width="230" height="32" rx="12" fill="#DCDFE4"/><text x="804" y="381" font-family="sans-serif" font-size="11" font-weight="bold" fill="#78909C">P07</text><text x="991" y="381" font-family="sans-serif" font-size="11" font-weight="bold" fill="#78909C">P07</text><text x="806" y="421" font-family="sans-serif" font-size="14" font-weight="bold" fill="#171A20">Horas y facturación</text><rect x="806" y="446" width="91" height="54" rx="5" fill="#E0E6ED"/><rect x="913" y="446" width="91" height="54" rx="5" fill="#E0E6ED"/><rect x="806" y="523" width="198" height="62" rx="5" fill="#F1F3F5"/></g>
  <g><rect x="1040" y="360" width="230" height="290" rx="12" fill="#FFFFFF" stroke="#D0D5DD"/><rect x="1040" y="360" width="230" height="32" rx="12" fill="#DCDFE4"/><text x="1054" y="381" font-family="sans-serif" font-size="11" font-weight="bold" fill="#78909C">C01</text><text x="1241" y="381" font-family="sans-serif" font-size="11" font-weight="bold" fill="#78909C">C01</text><text x="1056" y="421" font-family="sans-serif" font-size="14" font-weight="bold" fill="#171A20">Catálogo con filtros</text><rect x="1056" y="446" width="58" height="118" rx="5" fill="#E0E6ED"/><rect x="1126" y="446" width="58" height="118" rx="5" fill="#E0E6ED"/><rect x="1196" y="446" width="58" height="118" rx="5" fill="#E0E6ED"/><rect x="1056" y="585" width="124" height="10" rx="4" fill="#B0BEC5"/></g>

  <!-- Fila 3 -->
  <g><rect x="40" y="680" width="230" height="290" rx="12" fill="#FFFFFF" stroke="#D0D5DD"/><rect x="40" y="680" width="230" height="32" rx="12" fill="#DCDFE4"/><text x="54" y="701" font-family="sans-serif" font-size="11" font-weight="bold" fill="#78909C">C02</text><text x="241" y="701" font-family="sans-serif" font-size="11" font-weight="bold" fill="#78909C">C02</text><text x="56" y="741" font-family="sans-serif" font-size="14" font-weight="bold" fill="#171A20">Detalle e historial técnico</text><rect x="56" y="766" width="76" height="76" rx="6" fill="#E0E6ED"/><rect x="145" y="766" width="109" height="10" rx="4" fill="#E0E6ED"/><rect x="145" y="788" width="80" height="9" rx="4" fill="#E0E6ED"/><rect x="56" y="866" width="198" height="10" rx="4" fill="#E0E6ED"/></g>
  <g><rect x="290" y="680" width="230" height="290" rx="12" fill="#FFFFFF" stroke="#D0D5DD"/><rect x="290" y="680" width="230" height="32" rx="12" fill="#DCDFE4"/><text x="304" y="701" font-family="sans-serif" font-size="11" font-weight="bold" fill="#78909C">C03</text><text x="491" y="701" font-family="sans-serif" font-size="11" font-weight="bold" fill="#78909C">C03</text><text x="306" y="741" font-family="sans-serif" font-size="14" font-weight="bold" fill="#171A20">Confirmar reserva</text><rect x="306" y="766" width="198" height="28" rx="4" fill="#F1F3F5"/><rect x="306" y="806" width="198" height="28" rx="4" fill="#F1F3F5"/><rect x="398" y="859" width="106" height="34" rx="4" fill="#B0BEC5"/></g>
  <g><rect x="540" y="680" width="230" height="290" rx="12" fill="#FFFFFF" stroke="#D0D5DD"/><rect x="540" y="680" width="230" height="32" rx="12" fill="#DCDFE4"/><text x="554" y="701" font-family="sans-serif" font-size="11" font-weight="bold" fill="#78909C">C04</text><text x="741" y="701" font-family="sans-serif" font-size="11" font-weight="bold" fill="#78909C">C04</text><text x="556" y="741" font-family="sans-serif" font-size="14" font-weight="bold" fill="#171A20">Mis reservas por obra</text><rect x="556" y="766" width="198" height="20" rx="4" fill="#E0E6ED"/><rect x="556" y="804" width="26" height="24" rx="3" fill="#E0E6ED"/><rect x="588" y="804" width="26" height="24" rx="3" fill="#E0E6ED"/><rect x="620" y="804" width="26" height="24" rx="3" fill="#E0E6ED"/><rect x="652" y="804" width="26" height="24" rx="3" fill="#E0E6ED"/><rect x="556" y="854" width="78" height="22" rx="11" fill="#B0BEC5"/></g>
  <g><rect x="790" y="680" width="230" height="290" rx="12" fill="#FFFFFF" stroke="#D0D5DD"/><rect x="790" y="680" width="230" height="32" rx="12" fill="#DCDFE4"/><text x="804" y="701" font-family="sans-serif" font-size="11" font-weight="bold" fill="#78909C">C05</text><text x="991" y="701" font-family="sans-serif" font-size="11" font-weight="bold" fill="#78909C">C05</text><text x="806" y="741" font-family="sans-serif" font-size="14" font-weight="bold" fill="#171A20">Reportar avería</text><rect x="806" y="766" width="198" height="28" rx="4" fill="#F1F3F5"/><rect x="806" y="806" width="198" height="58" rx="4" fill="#F1F3F5"/><rect x="918" y="891" width="86" height="32" rx="4" fill="#B0BEC5"/></g>

  <!-- Panel lateral derecho -->
  <g><rect x="1290" y="680" width="270" height="290" rx="12" fill="#FFFFFF" stroke="#D0D5DD"/><text x="1310" y="714" font-family="sans-serif" font-size="15" font-weight="bold" fill="#171A20">Responsive requerido</text><text x="1310" y="740" font-family="sans-serif" font-size="12" fill="#78909C">Desktop 1440px · Tablet 768-1024px</text><text x="1310" y="760" font-family="sans-serif" font-size="12" fill="#78909C">Mobile 390px</text><text x="1310" y="800" font-family="sans-serif" font-size="15" font-weight="bold" fill="#171A20">Estados incluidos</text><circle cx="1318" cy="827" r="6" fill="#D0D5DD"/><text x="1332" y="831" font-family="sans-serif" font-size="12" fill="#667085">Vacío / sin resultados</text><circle cx="1318" cy="853" r="6" fill="#E53935"/><text x="1332" y="857" font-family="sans-serif" font-size="12" fill="#667085">Error de validación</text><circle cx="1318" cy="879" r="6" fill="#FF9800"/><text x="1332" y="883" font-family="sans-serif" font-size="12" fill="#667085">Conflicto de fechas</text><circle cx="1318" cy="905" r="6" fill="#4CAF50"/><text x="1332" y="909" font-family="sans-serif" font-size="12" fill="#667085">Éxito / confirmación</text><circle cx="1318" cy="931" r="6" fill="#2196F3"/><text x="1332" y="935" font-family="sans-serif" font-size="12" fill="#667085">Carga y disponibilidad</text></g>
</svg>
