<svg xmlns="http://www.w3.org/2000/svg" width="1200" height="430" viewBox="0 0 1200 430" role="img" aria-labelledby="title"><title id="title">Flujos de usuario TechnoLoad</title><defs><marker id="a" markerWidth="10" markerHeight="10" refX="9" refY="3" orient="auto"><path d="M0,0 L0,6 L9,3 z" fill="#1976D2"/></marker></defs><rect width="1200" height="430" fill="#F6F8FB"/><text x="50" y="55" font-family="Inter,Arial" font-size="28" font-weight="700" fill="#0F3D5E">User flows: lectura, mantenimiento y asignación</text><g font-family="Inter,Arial" font-size="15" fill="#17324D"><text x="60" y="110" font-weight="700">Registrar lectura</text><text x="60" y="235" font-weight="700">Programar mantenimiento</text><text x="60" y="360" font-weight="700">Asignar unidad</text></g><g fill="#fff" stroke="#1976D2" stroke-width="2"><rect x="250" y="80" width="150" height="48" rx="10"/><rect x="485" y="80" width="150" height="48" rx="10"/><rect x="720" y="80" width="150" height="48" rx="10"/><rect x="250" y="205" width="150" height="48" rx="10"/><rect x="485" y="205" width="150" height="48" rx="10"/><rect x="720" y="205" width="150" height="48" rx="10"/><rect x="250" y="330" width="150" height="48" rx="10"/><rect x="485" y="330" width="150" height="48" rx="10"/><rect x="720" y="330" width="150" height="48" rx="10"/></g><g font-family="Inter,Arial" font-size="14" fill="#17324D" text-anchor="middle"><text x="325" y="110">Ingresar valor</text><text x="560" y="110">Validar</text><text x="795" y="110">Guardar y confirmar</text><text x="325" y="235">Elegir activo</text><text x="560" y="235">Definir prioridad</text><text x="795" y="235">Crear orden</text><text x="325" y="360">Filtrar disponibles</text><text x="560" y="360">Confirmar unidad</text><text x="795" y="360">Actualizar operación</text></g><g stroke="#1976D2" stroke-width="3" marker-end="url(#a)"><path d="M400 104H485"/><path d="M635 104H720"/><path d="M400 229H485"/><path d="M635 229H720"/><path d="M400 354H485"/><path d="M635 354H720"/></g></svg>
