<svg xmlns="http://www.w3.org/2000/svg" width="1200" height="430" viewBox="0 0 1200 430" role="img" aria-labelledby="title"><title id="title">Mapa de interacciones del prototipo TechnoLoad</title><rect width="1200" height="430" fill="#F6F8FB"/><text x="50" y="55" font-family="Inter,Arial" font-size="28" font-weight="700" fill="#0F3D5E">Prototipo navegable — interacciones principales</text><g font-family="Inter,Arial"><g fill="#fff" stroke="#D7DEE5"><rect x="60" y="100" width="250" height="240" rx="14"/><rect x="360" y="100" width="250" height="240" rx="14"/><rect x="660" y="100" width="250" height="240" rx="14"/></g><text x="85" y="135" font-size="18" font-weight="700" fill="#17324D">Activos</text><rect x="85" y="165" width="190" height="35" rx="6" fill="#1976D2"/><text x="122" y="188" font-size="14" fill="#fff">Abrir resumen</text><text x="385" y="135" font-size="18" font-weight="700" fill="#17324D">Popover</text><text x="385" y="180" font-size="15" fill="#52616B">On Click · Overlay</text><rect x="385" y="205" width="170" height="38" rx="6" fill="#FF8F00"/><text x="420" y="230" font-size="14" fill="#17324D">Registrar lectura</text><text x="685" y="135" font-size="18" font-weight="700" fill="#17324D">Formulario</text><text x="685" y="180" font-size="15" fill="#52616B">Validación en línea</text><rect x="685" y="205" width="170" height="38" rx="6" fill="#1976D2"/><text x="735" y="230" font-size="14" fill="#fff">Guardar</text><text x="970" y="180" font-size="18" font-weight="700" fill="#2E7D32">Toast de éxito</text><text x="970" y="210" font-family="Inter,Arial" font-size="15" fill="#52616B">Dissolve · 250 ms</text></g><g stroke="#1976D2" stroke-width="3" fill="none"><path d="M310 220H360"/><path d="M610 220H660"/><path d="M910 220H950"/></g></svg>
