<svg xmlns="http://www.w3.org/2000/svg" width="1200" height="560" viewBox="0 0 1200 560" role="img" aria-labelledby="title">
  <title id="title">Estados de interfaz de TechnoLoad</title><rect width="1200" height="560" fill="#F6F8FB"/><text x="50" y="55" font-family="Inter,Arial" font-size="28" font-weight="700" fill="#0F3D5E">Estados visuales de la Web Application</text>
  <g font-family="Inter,Arial"><g fill="#fff" stroke="#D7DEE5"><rect x="50" y="95" width="250" height="360" rx="16"/><rect x="330" y="95" width="250" height="360" rx="16"/><rect x="610" y="95" width="250" height="360" rx="16"/><rect x="890" y="95" width="250" height="360" rx="16"/></g><g font-size="18" font-weight="700" fill="#17324D"><text x="75" y="130">Carga</text><text x="355" y="130">Sin resultados</text><text x="635" y="130">Éxito</text><text x="915" y="130">Error recuperable</text></g><g fill="#E6EDF3"><rect x="75" y="160" width="190" height="16" rx="8"/><rect x="75" y="195" width="150" height="16" rx="8"/><rect x="75" y="230" width="175" height="105" rx="12"/></g><text x="385" y="220" font-size="44" fill="#A5B2BD">⌕</text><text x="365" y="270" font-size="15" fill="#52616B">No hay activos para estos filtros.</text><rect x="370" y="300" width="150" height="38" rx="7" fill="#1976D2"/><text x="387" y="325" font-size="14" fill="#fff">Restablecer filtros</text><rect x="635" y="165" width="185" height="62" rx="9" fill="#E8F5E9"/><text x="655" y="202" font-size="16" fill="#2E7D32">✓ Lectura registrada</text><rect x="915" y="165" width="185" height="86" rx="9" fill="#FFEBEE"/><text x="935" y="198" font-size="15" fill="#C62828">No se pudo guardar.</text><rect x="935" y="210" width="110" height="28" rx="6" fill="#C62828"/><text x="956" y="230" font-size="13" fill="#fff">Reintentar</text></g>
</svg>
