<svg xmlns="http://www.w3.org/2000/svg" xmlns:xlink="http://www.w3.org/1999/xlink" version="1.1" data-diagram-type="DESCRIPTION" style="width:1664px;height:820px;background:#FFFFFF;" width="1664px" height="820px" viewBox="0 0 1664 820" zoomAndPan="magnify" preserveAspectRatio="none" contentStyleType="text/css"><?plantuml 1.2026.8?><defs/><g font-family="sans-serif" lengthAdjust="spacing"><g class="title" data-source-line="1"><text x="663.723" y="23.132" fill="#000" font-size="14" textLength="329.779" font-weight="700" font-family="Arial">TechFlow - Billing Management Bounded Context</text><text x="731.371" y="39.23" fill="#000" font-size="14" textLength="194.482" font-weight="700" font-family="Arial">Design-Level Event Storming</text></g><!--entity CMD_CALCULATE--><g class="entity" data-qualified-name="CMD_CALCULATE" id="ent0001" data-source-line="12"><rect x="17.11" y="527.197" width="174.861" height="52.197" fill="#87CEFA" style="stroke:#181818;stroke-width:0.5;" rx="4" ry="4"/><text x="27.11" y="550.329" fill="#000" font-size="14" textLength="73.883" font-family="Arial">COMMAND</text><text x="27.11" y="566.428" fill="#000" font-size="14" textLength="154.861" font-family="Arial">Calculate Rental Amount</text></g><!--entity AGG_CALCULATE--><g class="entity" data-qualified-name="AGG_CALCULATE" id="ent0002" data-source-line="13"><rect x="320.13" y="527.197" width="108.683" height="52.197" fill="#FFF59D" style="stroke:#181818;stroke-width:0.5;" rx="4" ry="4"/><text x="330.13" y="550.329" fill="#000" font-size="14" textLength="88.683" font-family="Arial">AGGREGATE</text><text x="330.13" y="566.428" fill="#000" font-size="14" textLength="44.358" font-family="Arial">Invoice</text></g><!--entity CMD_ISSUE_INVOICE--><g class="entity" data-qualified-name="CMD_ISSUE_INVOICE" id="ent0003" data-source-line="14"><rect x="1032.93" y="527.197" width="167.068" height="52.197" fill="#87CEFA" style="stroke:#181818;stroke-width:0.5;" rx="4" ry="4"/><text x="1042.93" y="550.329" fill="#000" font-size="14" textLength="73.883" font-family="Arial">COMMAND</text><text x="1042.93" y="566.428" fill="#000" font-size="14" textLength="147.068" font-family="Arial">Issue Electronic Invoice</text></g><!--entity AGG_ISSUE_INVOICE--><g class="entity" data-qualified-name="AGG_ISSUE_INVOICE" id="ent0004" data-source-line="15"><rect x="1283.34" y="483.197" width="108.683" height="52.197" fill="#FFF59D" style="stroke:#181818;stroke-width:0.5;" rx="4" ry="4"/><text x="1293.34" y="506.329" fill="#000" font-size="14" textLength="88.683" font-family="Arial">AGGREGATE</text><text x="1293.34" y="522.428" fill="#000" font-size="14" textLength="44.358" font-family="Arial">Invoice</text></g><!--entity ACT_ISSUE_INVOICE--><g class="entity" data-qualified-name="ACT_ISSUE_INVOICE" id="ent0005" data-source-line="16"><rect x="1289.56" y="570.197" width="96.248" height="52.197" fill="#FFF9C4" style="stroke:#181818;stroke-width:0.5;" rx="4" ry="4"/><text x="1299.56" y="593.329" fill="#000" font-size="14" textLength="49" font-family="Arial">ACTOR</text><text x="1299.56" y="609.428" fill="#000" font-size="14" textLength="76.248" font-family="Arial">Fleet Owner</text></g><!--entity CMD_APPLY_PENALTY--><g class="entity" data-qualified-name="CMD_APPLY_PENALTY" id="ent0006" data-source-line="17"><rect x="36.17" y="440.197" width="136.744" height="52.197" fill="#87CEFA" style="stroke:#181818;stroke-width:0.5;" rx="4" ry="4"/><text x="46.17" y="463.329" fill="#000" font-size="14" textLength="73.883" font-family="Arial">COMMAND</text><text x="46.17" y="479.428" fill="#000" font-size="14" textLength="116.744" font-family="Arial">Apply Late Penalty</text></g><!--entity AGG_PENALTY--><g class="entity" data-qualified-name="AGG_PENALTY" id="ent0007" data-source-line="18"><rect x="320.13" y="440.197" width="108.683" height="52.197" fill="#FFF59D" style="stroke:#181818;stroke-width:0.5;" rx="4" ry="4"/><text x="330.13" y="463.329" fill="#000" font-size="14" textLength="88.683" font-family="Arial">AGGREGATE</text><text x="330.13" y="479.428" fill="#000" font-size="14" textLength="77.834" font-family="Arial">Late Penalty</text></g><!--entity EVT_AMOUNT_CALCULATED--><g class="entity" data-qualified-name="EVT_AMOUNT_CALCULATED" id="ent0008" data-source-line="20"><rect x="546.87" y="527.197" width="182.647" height="52.197" fill="#FFB74D" style="stroke:#181818;stroke-width:0.5;" rx="4" ry="4"/><text x="556.87" y="550.329" fill="#000" font-size="14" textLength="106.565" font-family="Arial">DOMAIN EVENT</text><text x="556.87" y="566.428" fill="#000" font-size="14" textLength="162.647" font-family="Arial">Rental Amount Calculated</text></g><!--entity EVT_INVOICE_ISSUED--><g class="entity" data-qualified-name="EVT_INVOICE_ISSUED" id="ent0009" data-source-line="21"><rect x="1475.37" y="440.197" width="174.854" height="52.197" fill="#FFB74D" style="stroke:#181818;stroke-width:0.5;" rx="4" ry="4"/><text x="1485.37" y="463.329" fill="#000" font-size="14" textLength="106.565" font-family="Arial">DOMAIN EVENT</text><text x="1485.37" y="479.428" fill="#000" font-size="14" textLength="154.854" font-family="Arial">Electronic Invoice Issued</text></g><!--entity EVT_PENALTY_APPLIED--><g class="entity" data-qualified-name="EVT_PENALTY_APPLIED" id="ent0010" data-source-line="22"><rect x="563.98" y="440.197" width="148.427" height="52.197" fill="#FFB74D" style="stroke:#181818;stroke-width:0.5;" rx="4" ry="4"/><text x="573.98" y="463.329" fill="#000" font-size="14" textLength="106.565" font-family="Arial">DOMAIN EVENT</text><text x="573.98" y="479.428" fill="#000" font-size="14" textLength="128.427" font-family="Arial">Late Penalty Applied</text></g><!--entity POL_ISSUE_INVOICE--><g class="entity" data-qualified-name="POL_ISSUE_INVOICE" id="ent0011" data-source-line="24"><rect x="789.51" y="511.097" width="183.42" height="84.395" fill="#B39DDB" style="stroke:#181818;stroke-width:0.5;" rx="4" ry="4"/><text x="799.51" y="534.229" fill="#000" font-size="14" textLength="51.352" font-family="Arial">POLICY</text><text x="799.51" y="550.328" fill="#000" font-size="14" textLength="163.42" font-family="Arial">When the rental amount is</text><text x="799.51" y="566.426" fill="#000" font-size="14" textLength="160.33" font-family="Arial">calculated, enable issuing</text><text x="799.51" y="582.525" fill="#000" font-size="14" textLength="130.737" font-family="Arial">the electronic invoice</text></g><!--entity POL_LATE_RETURN--><g class="entity" data-qualified-name="POL_LATE_RETURN" id="ent0012" data-source-line="25"><rect x="7" y="321.097" width="195.075" height="84.395" fill="#B39DDB" style="stroke:#181818;stroke-width:0.5;" rx="4" ry="4"/><text x="17" y="344.229" fill="#000" font-size="14" textLength="51.352" font-family="Arial">POLICY</text><text x="17" y="360.328" fill="#000" font-size="14" textLength="175.075" font-family="Arial">When machinery is returned</text><text x="17" y="376.426" fill="#000" font-size="14" textLength="161.123" font-family="Arial">after the agreed end date,</text><text x="17" y="392.525" fill="#000" font-size="14" textLength="120.641" font-family="Arial">apply a late penalty</text></g><!--entity EXT_SUNAT--><g class="entity" data-qualified-name="EXT_SUNAT" id="ent0013" data-source-line="27"><rect x="1260" y="396.197" width="155.365" height="52.197" fill="#E78AD9" style="stroke:#181818;stroke-width:0.5;" rx="4" ry="4"/><text x="1270" y="419.329" fill="#000" font-size="14" textLength="135.365" font-family="Arial">EXTERNAL SYSTEM</text><text x="1270" y="435.428" fill="#000" font-size="14" textLength="47.448" font-family="Arial">SUNAT</text></g><!--entity READ_INVOICE--><g class="entity" data-qualified-name="READ_INVOICE" id="ent0014" data-source-line="29"><rect x="48.25" y="234.197" width="112.572" height="52.197" fill="#81C784" style="stroke:#181818;stroke-width:0.5;" rx="4" ry="4"/><text x="58.25" y="257.329" fill="#000" font-size="14" textLength="92.572" font-family="Arial">READ MODEL</text><text x="58.25" y="273.428" fill="#000" font-size="14" textLength="91.041" font-family="Arial">Invoice Details</text></g><!--entity QUERY_INVOICE--><g class="entity" data-qualified-name="QUERY_INVOICE" id="ent0015" data-source-line="30"><rect x="325.17" y="234.197" width="98.593" height="52.197" fill="#87CEFA" style="stroke:#181818;stroke-width:0.5;" rx="4" ry="4"/><text x="335.17" y="257.329" fill="#000" font-size="14" textLength="49.786" font-family="Arial">QUERY</text><text x="335.17" y="273.428" fill="#000" font-size="14" textLength="78.593" font-family="Arial">View Invoice</text></g><!--entity RESULT_INVOICE--><g class="entity" data-qualified-name="RESULT_INVOICE" id="ent0016" data-source-line="31"><rect x="573.74" y="234.197" width="128.91" height="52.197" fill="#C8E6C9" style="stroke:#181818;stroke-width:0.5;" rx="4" ry="4"/><text x="583.74" y="257.329" fill="#000" font-size="14" textLength="108.91" font-family="Arial">QUERY RESULT</text><text x="583.74" y="273.428" fill="#000" font-size="14" textLength="91.041" font-family="Arial">Invoice Details</text></g><!--entity READ_INVOICE_HISTORY--><g class="entity" data-qualified-name="READ_INVOICE_HISTORY" id="ent0017" data-source-line="33"><rect x="48.25" y="147.197" width="112.572" height="52.197" fill="#81C784" style="stroke:#181818;stroke-width:0.5;" rx="4" ry="4"/><text x="58.25" y="170.329" fill="#000" font-size="14" textLength="92.572" font-family="Arial">READ MODEL</text><text x="58.25" y="186.428" fill="#000" font-size="14" textLength="91.807" font-family="Arial">Invoice History</text></g><!--entity QUERY_INVOICE_HISTORY--><g class="entity" data-qualified-name="QUERY_INVOICE_HISTORY" id="ent0018" data-source-line="34"><rect x="301.45" y="147.197" width="146.041" height="52.197" fill="#87CEFA" style="stroke:#181818;stroke-width:0.5;" rx="4" ry="4"/><text x="311.45" y="170.329" fill="#000" font-size="14" textLength="49.786" font-family="Arial">QUERY</text><text x="311.45" y="186.428" fill="#000" font-size="14" textLength="126.041" font-family="Arial">View Invoice History</text></g><!--entity RESULT_INVOICE_HISTORY--><g class="entity" data-qualified-name="RESULT_INVOICE_HISTORY" id="ent0019" data-source-line="35"><rect x="573.74" y="147.197" width="128.91" height="52.197" fill="#C8E6C9" style="stroke:#181818;stroke-width:0.5;" rx="4" ry="4"/><text x="583.74" y="170.329" fill="#000" font-size="14" textLength="108.91" font-family="Arial">QUERY RESULT</text><text x="583.74" y="186.428" fill="#000" font-size="14" textLength="91.807" font-family="Arial">Invoice History</text></g><!--entity READ_PENALTIES--><g class="entity" data-qualified-name="READ_PENALTIES" id="ent0020" data-source-line="37"><rect x="42.78" y="60.197" width="123.51" height="52.197" fill="#81C784" style="stroke:#181818;stroke-width:0.5;" rx="4" ry="4"/><text x="52.78" y="83.329" fill="#000" font-size="14" textLength="92.572" font-family="Arial">READ MODEL</text><text x="52.78" y="99.428" fill="#000" font-size="14" textLength="103.51" font-family="Arial">Late Penalty List</text></g><!--entity QUERY_PENALTIES--><g class="entity" data-qualified-name="QUERY_PENALTIES" id="ent0021" data-source-line="38"><rect x="271.47" y="60.197" width="205.999" height="52.197" fill="#87CEFA" style="stroke:#181818;stroke-width:0.5;" rx="4" ry="4"/><text x="281.47" y="83.329" fill="#000" font-size="14" textLength="49.786" font-family="Arial">QUERY</text><text x="281.47" y="99.428" fill="#000" font-size="14" textLength="185.999" font-family="Arial">View Late Penalties by Rental</text></g><!--entity RESULT_PENALTIES--><g class="entity" data-qualified-name="RESULT_PENALTIES" id="ent0022" data-source-line="39"><rect x="573.74" y="60.197" width="128.91" height="52.197" fill="#C8E6C9" style="stroke:#181818;stroke-width:0.5;" rx="4" ry="4"/><text x="583.74" y="83.329" fill="#000" font-size="14" textLength="108.91" font-family="Arial">QUERY RESULT</text><text x="583.74" y="99.428" fill="#000" font-size="14" textLength="103.51" font-family="Arial">Late Penalty List</text></g><g class="entity" data-qualified-name="GMN34" id="ent0035" data-source-line="60"><path d="M262.08,332.397 L262.08,359.297 L202.27,363.297 L262.08,367.297 L262.08,394.192 A4,4 0 0 0 266.08,398.192 L482.872,398.192 A4,4 0 0 0 486.872,394.192 L486.872,338.397 L476.872,328.397 L266.08,328.397 A4,4 0 0 0 262.08,332.397" style="stroke:#181818;stroke-width:0.5;" fill="#FEFFDD"/><path d="M476.872,328.397 L476.872,336.397 A2,2 0 0 0 478.872,338.397 L486.872,338.397 L476.872,328.397" style="stroke:#181818;stroke-width:0.5;" fill="#FEFFDD"/><text x="268.08" y="345.591" fill="#000" font-size="13" textLength="192.912" font-family="Arial">Cross-context policy: triggered by</text><text x="268.08" y="360.54" fill="#000" font-size="13" textLength="203.792" font-family="Arial">Rental Management when a Rental</text><text x="268.08" y="375.489" fill="#000" font-size="13" textLength="195.121" font-family="Arial">is closed after its agreed end date</text><text x="268.08" y="390.437" fill="#000" font-size="13" textLength="203.042" font-family="Arial">(Rental Period, external reference).</text></g><!--link CMD_CALCULATE to AGG_CALCULATE--><g class="link" data-entity-1="ent0001" data-entity-2="ent0002" id="lnk23" data-source-line="45" data-link-type="dependency"><path d="M192.16,553.297 C234.2,553.297 278.39,553.297 314.92,553.297" style="stroke:#181818;stroke-width:1;" fill="none" id="CMD_CALCULATE-to-AGG_CALCULATE"/><polygon points="319.92,553.297,310.92,549.297,314.92,553.297,310.92,557.297,319.92,553.297" fill="#181818" style="stroke:#181818;stroke-width:1;stroke-linejoin:miter;stroke-miterlimit:10;"/></g><!--link AGG_CALCULATE to EVT_AMOUNT_CALCULATED--><g class="link" data-entity-1="ent0002" data-entity-2="ent0008" id="lnk24" data-source-line="46" data-link-type="dependency"><path d="M429.07,553.297 C462.86,553.297 502.38,553.297 541.56,553.297" style="stroke:#181818;stroke-width:1;" fill="none" id="AGG_CALCULATE-to-EVT_AMOUNT_CALCULATED"/><polygon points="546.56,553.297,537.56,549.297,541.56,553.297,537.56,557.297,546.56,553.297" fill="#181818" style="stroke:#181818;stroke-width:1;stroke-linejoin:miter;stroke-miterlimit:10;"/></g><!--link CMD_ISSUE_INVOICE to AGG_ISSUE_INVOICE--><g class="link" data-entity-1="ent0003" data-entity-2="ent0004" id="lnk25" data-source-line="48" data-link-type="dependency"><path d="M1200.34,536.667 C1227.99,531.117 1253.148,526.06 1277.988,521.08" style="stroke:#181818;stroke-width:1;" fill="none" id="CMD_ISSUE_INVOICE-to-AGG_ISSUE_INVOICE"/><polygon points="1282.89,520.097,1273.279,517.944,1277.988,521.08,1274.852,525.788,1282.89,520.097" fill="#181818" style="stroke:#181818;stroke-width:1;stroke-linejoin:miter;stroke-miterlimit:10;"/></g><!--link AGG_ISSUE_INVOICE to EVT_INVOICE_ISSUED--><g class="link" data-entity-1="ent0004" data-entity-2="ent0009" id="lnk26" data-source-line="49" data-link-type="dependency"><path d="M1392.41,498.947 C1417.17,494.177 1442.27,489.333 1470.11,483.973" style="stroke:#181818;stroke-width:1;" fill="none" id="AGG_ISSUE_INVOICE-to-EVT_INVOICE_ISSUED"/><polygon points="1475.02,483.027,1465.426,480.801,1470.11,483.973,1466.939,488.657,1475.02,483.027" fill="#181818" style="stroke:#181818;stroke-width:1;stroke-linejoin:miter;stroke-miterlimit:10;"/></g><!--reverse link CMD_ISSUE_INVOICE to ACT_ISSUE_INVOICE--><!--link EXT_SUNAT to EVT_INVOICE_ISSUED--><g class="link" data-entity-1="ent0013" data-entity-2="ent0009" id="lnk29" data-source-line="51" data-link-type="association"><path d="M1415.78,437.507 C1434.92,441.277 1455.57,445.347 1475.14,449.207" style="stroke:#181818;stroke-width:1;stroke-dasharray:7,7;" fill="none" id="EXT_SUNAT-EVT_INVOICE_ISSUED"/></g><!--link CMD_APPLY_PENALTY to AGG_PENALTY--><g class="link" data-entity-1="ent0006" data-entity-2="ent0007" id="lnk30" data-source-line="53" data-link-type="dependency"><path d="M173.15,466.297 C218.57,466.297 272.61,466.297 314.8,466.297" style="stroke:#181818;stroke-width:1;" fill="none" id="CMD_APPLY_PENALTY-to-AGG_PENALTY"/><polygon points="319.8,466.297,310.8,462.297,314.8,466.297,310.8,470.297,319.8,466.297" fill="#181818" style="stroke:#181818;stroke-width:1;stroke-linejoin:miter;stroke-miterlimit:10;"/></g><!--link AGG_PENALTY to EVT_PENALTY_APPLIED--><g class="link" data-entity-1="ent0007" data-entity-2="ent0010" id="lnk31" data-source-line="54" data-link-type="dependency"><path d="M429.07,466.297 C467.95,466.297 516.01,466.297 558.82,466.297" style="stroke:#181818;stroke-width:1;" fill="none" id="AGG_PENALTY-to-EVT_PENALTY_APPLIED"/><polygon points="563.82,466.297,554.82,462.297,558.82,466.297,554.82,470.297,563.82,466.297" fill="#181818" style="stroke:#181818;stroke-width:1;stroke-linejoin:miter;stroke-miterlimit:10;"/></g><!--link EVT_AMOUNT_CALCULATED to POL_ISSUE_INVOICE--><g class="link" data-entity-1="ent0008" data-entity-2="ent0011" id="lnk32" data-source-line="56" data-link-type="dependency"><path d="M729.97,553.297 C749.32,553.297 764.76,553.297 784.12,553.297" style="stroke:#181818;stroke-width:1;" fill="none" id="EVT_AMOUNT_CALCULATED-to-POL_ISSUE_INVOICE"/><polygon points="789.12,553.297,780.12,549.297,784.12,553.297,780.12,557.297,789.12,553.297" fill="#181818" style="stroke:#181818;stroke-width:1;stroke-linejoin:miter;stroke-miterlimit:10;"/></g><!--link POL_ISSUE_INVOICE to CMD_ISSUE_INVOICE--><g class="link" data-entity-1="ent0011" data-entity-2="ent0003" id="lnk33" data-source-line="57" data-link-type="dependency"><path d="M973.4,553.297 C992.95,553.297 1008.5,553.297 1027.71,553.297" style="stroke:#181818;stroke-width:1;" fill="none" id="POL_ISSUE_INVOICE-to-CMD_ISSUE_INVOICE"/><polygon points="1032.71,553.297,1023.71,549.297,1027.71,553.297,1023.71,557.297,1032.71,553.297" fill="#181818" style="stroke:#181818;stroke-width:1;stroke-linejoin:miter;stroke-miterlimit:10;"/></g><!--link READ_INVOICE to QUERY_INVOICE--><g class="link" data-entity-1="ent0014" data-entity-2="ent0015" id="lnk37" data-source-line="70" data-link-type="dependency"><path d="M161.05,260.297 C209.34,260.297 273.61,260.297 319.77,260.297" style="stroke:#181818;stroke-width:1;" fill="none" id="READ_INVOICE-to-QUERY_INVOICE"/><polygon points="324.77,260.297,315.77,256.297,319.77,260.297,315.77,264.297,324.77,260.297" fill="#181818" style="stroke:#181818;stroke-width:1;stroke-linejoin:miter;stroke-miterlimit:10;"/></g><!--link QUERY_INVOICE to RESULT_INVOICE--><g class="link" data-entity-1="ent0015" data-entity-2="ent0016" id="lnk38" data-source-line="71" data-link-type="dependency"><path d="M424.09,260.297 C466.22,260.297 522.47,260.297 568.51,260.297" style="stroke:#181818;stroke-width:1;" fill="none" id="QUERY_INVOICE-to-RESULT_INVOICE"/><polygon points="573.51,260.297,564.51,256.297,568.51,260.297,564.51,264.297,573.51,260.297" fill="#181818" style="stroke:#181818;stroke-width:1;stroke-linejoin:miter;stroke-miterlimit:10;"/></g><!--link READ_INVOICE_HISTORY to QUERY_INVOICE_HISTORY--><g class="link" data-entity-1="ent0017" data-entity-2="ent0018" id="lnk39" data-source-line="72" data-link-type="dependency"><path d="M161.05,173.297 C201.67,173.297 252.15,173.297 296.22,173.297" style="stroke:#181818;stroke-width:1;" fill="none" id="READ_INVOICE_HISTORY-to-QUERY_INVOICE_HISTORY"/><polygon points="301.22,173.297,292.22,169.297,296.22,173.297,292.22,177.297,301.22,173.297" fill="#181818" style="stroke:#181818;stroke-width:1;stroke-linejoin:miter;stroke-miterlimit:10;"/></g><!--link QUERY_INVOICE_HISTORY to RESULT_INVOICE_HISTORY--><g class="link" data-entity-1="ent0018" data-entity-2="ent0019" id="lnk40" data-source-line="73" data-link-type="dependency"><path d="M447.68,173.297 C487.02,173.297 530.27,173.297 568.25,173.297" style="stroke:#181818;stroke-width:1;" fill="none" id="QUERY_INVOICE_HISTORY-to-RESULT_INVOICE_HISTORY"/><polygon points="573.25,173.297,564.25,169.297,568.25,173.297,564.25,177.297,573.25,173.297" fill="#181818" style="stroke:#181818;stroke-width:1;stroke-linejoin:miter;stroke-miterlimit:10;"/></g><!--link READ_PENALTIES to QUERY_PENALTIES--><g class="link" data-entity-1="ent0020" data-entity-2="ent0021" id="lnk41" data-source-line="74" data-link-type="dependency"><path d="M166.67,86.297 C197.56,86.297 230.87,86.297 266.1,86.297" style="stroke:#181818;stroke-width:1;" fill="none" id="READ_PENALTIES-to-QUERY_PENALTIES"/><polygon points="271.1,86.297,262.1,82.297,266.1,86.297,262.1,90.297,271.1,86.297" fill="#181818" style="stroke:#181818;stroke-width:1;stroke-linejoin:miter;stroke-miterlimit:10;"/></g><!--link QUERY_PENALTIES to RESULT_PENALTIES--><g class="link" data-entity-1="ent0021" data-entity-2="ent0022" id="lnk42" data-source-line="75" data-link-type="dependency"><path d="M477.78,86.297 C510.04,86.297 539.73,86.297 568.49,86.297" style="stroke:#181818;stroke-width:1;" fill="none" id="QUERY_PENALTIES-to-RESULT_PENALTIES"/><polygon points="573.49,86.297,564.49,82.297,568.49,86.297,564.49,90.297,573.49,86.297" fill="#181818" style="stroke:#181818;stroke-width:1;stroke-linejoin:miter;stroke-miterlimit:10;"/></g><g class="legend" data-source-line="77"><rect x="1468.742" y="642.395" width="176.482" height="158.888" fill="#DDD" style="stroke:#000;stroke-width:1;" rx="4" ry="4"/><text x="1477.632" y="662.526" fill="#000" font-size="14" textLength="36.552" font-weight="700" font-family="Arial">Color</text><text x="1521.963" y="662.526" fill="#000" font-size="14" textLength="54.462" font-weight="700" font-family="Arial">Element</text><rect x="1473.742" y="665.493" width="44.331" height="16.099" fill="#87CEFA" style="stroke:none;"/><text x="1473.742" y="678.625" fill="#000" font-size="14" font-family="Arial"> </text><text x="1521.963" y="678.625" fill="#000" font-size="14" textLength="114.372" font-family="Arial">Command / Query</text><rect x="1473.742" y="681.592" width="44.331" height="16.099" fill="#FFF59D" style="stroke:none;"/><text x="1473.742" y="694.724" fill="#000" font-size="14" font-family="Arial"> </text><text x="1521.963" y="694.724" fill="#000" font-size="14" textLength="64.606" font-family="Arial">Aggregate</text><rect x="1473.742" y="697.69" width="44.331" height="16.099" fill="#FFB74D" style="stroke:none;"/><text x="1473.742" y="710.822" fill="#000" font-size="14" font-family="Arial"> </text><text x="1521.963" y="710.822" fill="#000" font-size="14" textLength="87.931" font-family="Arial">Domain Event</text><rect x="1473.742" y="713.789" width="44.331" height="16.099" fill="#FFF9C4" style="stroke:none;"/><text x="1473.742" y="726.921" fill="#000" font-size="14" font-family="Arial"> </text><text x="1521.963" y="726.921" fill="#000" font-size="14" textLength="32.676" font-family="Arial">Actor</text><rect x="1473.742" y="729.888" width="44.331" height="16.099" fill="#B39DDB" style="stroke:none;"/><text x="1473.742" y="743.02" fill="#000" font-size="14" font-family="Arial"> </text><text x="1521.963" y="743.02" fill="#000" font-size="14" textLength="37.345" font-family="Arial">Policy</text><rect x="1473.742" y="745.986" width="44.331" height="16.099" fill="#E78AD9" style="stroke:none;"/><text x="1473.742" y="759.118" fill="#000" font-size="14" font-family="Arial"> </text><text x="1521.963" y="759.118" fill="#000" font-size="14" textLength="101.924" font-family="Arial">External System</text><rect x="1473.742" y="762.085" width="44.331" height="16.099" fill="#81C784" style="stroke:none;"/><text x="1473.742" y="775.217" fill="#000" font-size="14" font-family="Arial"> </text><text x="1521.963" y="775.217" fill="#000" font-size="14" textLength="75.489" font-family="Arial">Read Model</text><rect x="1473.742" y="778.184" width="44.331" height="16.099" fill="#C8E6C9" style="stroke:none;"/><text x="1473.742" y="791.315" fill="#000" font-size="14" font-family="Arial"> </text><text x="1521.963" y="791.315" fill="#000" font-size="14" textLength="81.696" font-family="Arial">Query Result</text><line x1="1473.742" y1="649.395" x2="1640.224" y2="649.395" style="stroke:#000;stroke-width:1;"/><line x1="1473.742" y1="665.493" x2="1640.224" y2="665.493" style="stroke:#000;stroke-width:1;"/><line x1="1473.742" y1="681.592" x2="1640.224" y2="681.592" style="stroke:#000;stroke-width:1;"/><line x1="1473.742" y1="697.69" x2="1640.224" y2="697.69" style="stroke:#000;stroke-width:1;"/><line x1="1473.742" y1="713.789" x2="1640.224" y2="713.789" style="stroke:#000;stroke-width:1;"/><line x1="1473.742" y1="729.888" x2="1640.224" y2="729.888" style="stroke:#000;stroke-width:1;"/><line x1="1473.742" y1="745.986" x2="1640.224" y2="745.986" style="stroke:#000;stroke-width:1;"/><line x1="1473.742" y1="762.085" x2="1640.224" y2="762.085" style="stroke:#000;stroke-width:1;"/><line x1="1473.742" y1="778.184" x2="1640.224" y2="778.184" style="stroke:#000;stroke-width:1;"/><line x1="1473.742" y1="794.282" x2="1640.224" y2="794.282" style="stroke:#000;stroke-width:1;"/><line x1="1473.742" y1="649.395" x2="1473.742" y2="794.282" style="stroke:#000;stroke-width:1;"/><line x1="1518.073" y1="649.395" x2="1518.073" y2="794.282" style="stroke:#000;stroke-width:1;"/><line x1="1640.224" y1="649.395" x2="1640.224" y2="794.282" style="stroke:#000;stroke-width:1;"/></g><?plantuml-src bLPjZ-8s4FxkNp6w-z1MEhQgUksoLU-aa9Wz9Duk2TjRDHNo9WQi6WSbPZca_V4T9u4u19OjduZ7yymy7iypra9B3Y6FLtsPxg03FI6bK4iOCSMMVCsLXbwwLGbFm4sLvjzrf3oUYwNg3Fapbq2VpPv0fzaQ_GYHVA51fv29vKf38Z8UQv4galyhr8PbR0tvYYNfpWHPC9bpovAPI76QAPv1rrfF-89jfUvZ0cEsvk1aWab2Ve1Fbtve2_HUylpLJSGanzGIZ-2TEncDdB4NAPV9U2kPvk0ZCoR1MMDQ-Xsm7DoHDtUTeJiREY65zzrRb_OT6yMvl_VfFHeZDL3FgOXvuOVBjb-_t__jpZiRVP3dMmvKeYbBbOZ1XZ7X1q4me_F1-64oSFzl2YU-xJGSDvpuaUfBpZLCTbY7qjSDp_ZUkH_FKd0s6xc7eJd1ALTCwlqnUMSw7JxEftJi3CF7Ayct00o3eskLk-thJKREO0pqWOx3I3MA1yUY9WKKVGZdpcWo6uTrMJm3shlzw5t6R9S5YdhLeDNvbAVr1aIR99Y34nPOHROujO65PiDD9yE1-nYflrPSWLvno4hUhEGjyaZ5H-uV02CzePl0hB418sKyUCrAM1S6aK-BtllrplDw5yElMRmIU6VsY8zvw2qsSX8fjj3OpoOIMsOSXOIh11BCvmFQYhl2eEYtZLLi4zrKPUxJSEQFZx7juFHRI7qy8WWUWv2E8XNCnavO7j-tS5vymNjwstMykuQZJnqFHXEF3eyz0XxNJCYyy3PsgyL-SM-xZQl-TKPz9FqW-AxHdyNwQxrPR43uO3OCBuKsjXh3xTBVtUlPVn4vAl2-bVtyoo30bdvy8ui6JeED1VH6LisKR5OrrXLsZUuO8bxDh-oD0GskCRCm1C_XQL_9kaNHnhf2xb961JqBvq3izH7bfkirKqaEdS_WBB4vbWOUFugXUcLsDMTHnq3OKuOqPuwndrMz4gZPw0UmnYffJv03Q5FrI7jSTFvUYIJXwf_j1brQ0KdThZStvn19UtWSSgo-YJqT3dcT22WXvtNVR6-f7MdhN-TixaIbMBJokPCkJeMB0BXPckUTk7mzmIQL8jx_0HezbZn3ENpQuwPgN5dFhfsHL5OPS0TgQYpJ71rAGHKwFnLKtFLZ1JJbcKYDu7_7lNXTKOyN64t5_ASROlQRhA_TpwzRHE75zVGvIs2K9bnUkPODxJGdrf0HqfH8Oszg0pchNYsSWuMS5wasxj7XH3rgvECQELK52wtUX0_TfJd7el3avHCsiqmpm3_uIYWA-49U_gm4vVFBeTVXv-9KzwMrVCMWjUx-QjqCUbptqZKJgdfa7rpmuMLSOctYcRLoDkBQjBXSvM8vzt2H7gv0iCyrNrTv5QA9rhgmfQ5KBZIKQVeynvStcf1hoPZy1m00?></g></svg>